<svg width="276" height="61" viewBox="0 0 276 61" fill="none" xmlns="http://www.w3.org/2000/svg">
<path d="M16.1932 49H2.75213V12.6364H16.1754C19.8804 12.6364 23.0705 13.3643 25.7457 14.8203C28.4328 16.2644 30.5043 18.3478 31.9602 21.0703C33.4162 23.781 34.1442 27.0244 34.1442 30.8004C34.1442 34.5883 33.4162 37.8435 31.9602 40.5661C30.5161 43.2886 28.4505 45.3778 25.7635 46.8338C23.0765 48.2779 19.8864 49 16.1932 49ZM11.5412 41.5071H15.8558C17.8918 41.5071 19.6141 41.1638 21.0227 40.4773C22.4432 39.7789 23.5144 38.6484 24.2365 37.0859C24.9704 35.5116 25.3374 33.4164 25.3374 30.8004C25.3374 28.1844 24.9704 26.1011 24.2365 24.5504C23.5026 22.9879 22.4195 21.8634 20.9872 21.1768C19.5668 20.4785 17.8149 20.1293 15.7315 20.1293H11.5412V41.5071ZM58.9311 23.5384C58.8127 22.2363 58.286 21.2242 57.3509 20.5021C56.4276 19.7682 55.1077 19.4013 53.3913 19.4013C52.255 19.4013 51.308 19.5492 50.5504 19.8452C49.7929 20.1411 49.2247 20.5495 48.8459 21.0703C48.4671 21.5793 48.2718 22.1652 48.2599 22.8281C48.2363 23.3726 48.3428 23.852 48.5795 24.2663C48.8281 24.6806 49.1832 25.0476 49.6449 25.3672C50.1184 25.675 50.6866 25.9472 51.3494 26.1839C52.0123 26.4207 52.758 26.6278 53.5866 26.8054L56.7116 27.5156C58.5109 27.9062 60.0971 28.4271 61.4702 29.0781C62.8551 29.7292 64.0152 30.5045 64.9503 31.4041C65.8973 32.3037 66.6134 33.3395 67.0987 34.5114C67.584 35.6832 67.8326 36.9972 67.8445 38.4531C67.8326 40.7495 67.2526 42.7204 66.1044 44.3658C64.9562 46.0111 63.3049 47.2718 61.1506 48.1477C59.008 49.0237 56.4216 49.4616 53.3913 49.4616C50.3492 49.4616 47.6977 49.0059 45.4368 48.0945C43.1759 47.183 41.4181 45.7981 40.1634 43.9396C38.9086 42.0812 38.2635 39.7315 38.228 36.8906H46.6442C46.7152 38.0625 47.0289 39.0391 47.5852 39.8203C48.1416 40.6016 48.9051 41.1934 49.8757 41.5959C50.8582 41.9983 51.9946 42.1996 53.2848 42.1996C54.4685 42.1996 55.4747 42.0398 56.3033 41.7202C57.1437 41.4006 57.7888 40.9567 58.2386 40.3885C58.6884 39.8203 58.9193 39.1693 58.9311 38.4354C58.9193 37.7488 58.7062 37.1629 58.2919 36.6776C57.8776 36.1804 57.2384 35.7543 56.3743 35.3991C55.522 35.0322 54.433 34.6948 53.1072 34.3871L49.3075 33.4993C46.1589 32.7772 43.679 31.6113 41.8679 30.0014C40.0568 28.3797 39.1572 26.1899 39.169 23.4318C39.1572 21.1828 39.7609 19.2119 40.9801 17.5192C42.1993 15.8265 43.8861 14.5066 46.0405 13.5597C48.1948 12.6127 50.651 12.1392 53.4091 12.1392C56.2263 12.1392 58.6707 12.6186 60.7422 13.5774C62.8255 14.5244 64.4413 15.8561 65.5895 17.5724C66.7377 19.2888 67.3236 21.2775 67.3473 23.5384H58.9311ZM72.2834 12.6364H83.1676L92.4006 35.1506H92.8267L102.06 12.6364H112.944V49H104.386V26.6634H104.084L95.348 48.7692H89.8793L81.1435 26.5391H80.8416V49H72.2834V12.6364Z" fill="#4F32C3"/>
<path d="M129.408 23.5384C129.289 22.2363 128.763 21.2242 127.827 20.5021C126.904 19.7682 125.584 19.4013 123.868 19.4013C122.732 19.4013 121.785 19.5492 121.027 19.8452C120.269 20.1411 119.701 20.5495 119.322 21.0703C118.944 21.5793 118.748 22.1652 118.737 22.8281C118.713 23.3726 118.819 23.852 119.056 24.2663C119.305 24.6806 119.66 25.0476 120.121 25.3672C120.595 25.675 121.163 25.9472 121.826 26.1839C122.489 26.4207 123.235 26.6278 124.063 26.8054L127.188 27.5156C128.987 27.9062 130.574 28.4271 131.947 29.0781C133.332 29.7292 134.492 30.5045 135.427 31.4041C136.374 32.3037 137.09 33.3395 137.575 34.5114C138.061 35.6832 138.309 36.9972 138.321 38.4531C138.309 40.7495 137.729 42.7204 136.581 44.3658C135.433 46.0111 133.781 47.2718 131.627 48.1477C129.485 49.0237 126.898 49.4616 123.868 49.4616C120.826 49.4616 118.174 49.0059 115.913 48.0945C113.652 47.183 111.895 45.7981 110.64 43.9396C109.385 42.0812 108.74 39.7315 108.705 36.8906H117.121C117.192 38.0625 117.505 39.0391 118.062 39.8203C118.618 40.6016 119.382 41.1934 120.352 41.5959C121.335 41.9983 122.471 42.1996 123.761 42.1996C124.945 42.1996 125.951 42.0398 126.78 41.7202C127.62 41.4006 128.265 40.9567 128.715 40.3885C129.165 39.8203 129.396 39.1693 129.408 38.4354C129.396 37.7488 129.183 37.1629 128.768 36.6776C128.354 36.1804 127.715 35.7543 126.851 35.3991C125.999 35.0322 124.91 34.6948 123.584 34.3871L119.784 33.4993C116.635 32.7772 114.156 31.6113 112.344 30.0014C110.533 28.3797 109.634 26.1899 109.646 23.4318C109.634 21.1828 110.237 19.2119 111.457 17.5192C112.676 15.8265 114.363 14.5066 116.517 13.5597C118.671 12.6127 121.128 12.1392 123.886 12.1392C126.703 12.1392 129.147 12.6186 131.219 13.5774C133.302 14.5244 134.918 15.8561 136.066 17.5724C137.214 19.2888 137.8 21.2775 137.824 23.5384H129.408ZM141.57 19.7741V12.6364H172.305V19.7741H161.279V49H152.614V19.7741H141.57ZM209.259 30.8182C209.259 34.8191 208.49 38.2105 206.951 40.9922C205.412 43.7739 203.329 45.8868 200.701 47.331C198.085 48.7751 195.15 49.4972 191.894 49.4972C188.627 49.4972 185.686 48.7692 183.07 47.3132C180.454 45.8572 178.376 43.7443 176.838 40.9744C175.311 38.1927 174.547 34.8073 174.547 30.8182C174.547 26.8172 175.311 23.4259 176.838 20.6442C178.376 17.8625 180.454 15.7495 183.07 14.3054C185.686 12.8613 188.627 12.1392 191.894 12.1392C195.15 12.1392 198.085 12.8613 200.701 14.3054C203.329 15.7495 205.412 17.8625 206.951 20.6442C208.49 23.4259 209.259 26.8172 209.259 30.8182ZM200.275 30.8182C200.275 28.4508 199.938 26.4503 199.263 24.8168C198.6 23.1832 197.641 21.9463 196.387 21.1058C195.144 20.2654 193.646 19.8452 191.894 19.8452C190.154 19.8452 188.657 20.2654 187.402 21.1058C186.147 21.9463 185.183 23.1832 184.508 24.8168C183.845 26.4503 183.514 28.4508 183.514 30.8182C183.514 33.1856 183.845 35.1861 184.508 36.8196C185.183 38.4531 186.147 39.6901 187.402 40.5305C188.657 41.371 190.154 41.7912 191.894 41.7912C193.646 41.7912 195.144 41.371 196.387 40.5305C197.641 39.6901 198.6 38.4531 199.263 36.8196C199.938 35.1861 200.275 33.1856 200.275 30.8182ZM214.391 49V12.6364H229.412C232.135 12.6364 234.484 13.1276 236.461 14.1101C238.45 15.0807 239.983 16.4775 241.06 18.3004C242.137 20.1115 242.676 22.2599 242.676 24.7457C242.676 27.267 242.125 29.4096 241.024 31.1733C239.923 32.9252 238.361 34.2628 236.337 35.1861C234.313 36.0975 231.916 36.5533 229.146 36.5533H219.646V29.6286H227.512C228.838 29.6286 229.945 29.4569 230.833 29.1136C231.732 28.7585 232.413 28.2259 232.874 27.5156C233.336 26.7936 233.567 25.8703 233.567 24.7457C233.567 23.6212 233.336 22.692 232.874 21.9581C232.413 21.2124 231.732 20.656 230.833 20.2891C229.933 19.9103 228.826 19.7209 227.512 19.7209H223.18V49H214.391ZM234.863 32.3807L243.919 49H234.33L225.453 32.3807H234.863ZM247.496 49V12.6364H272.851V19.7741H256.285V27.2315H271.555V34.3871H256.285V41.8622H272.851V49H247.496Z" fill="white"/>
</svg>
